<svg xmlns="http://www.w3.org/2000/svg" xmlns:xlink="http://www.w3.org/1999/xlink" viewBox="0 0 430 430" width="430" height="430" preserveAspectRatio="xMidYMid meet" style="width: 100%; height: 100%; transform: translate3d(0px, 0px, 0px); content-visibility: visible;"><defs><clipPath id="__lottie_element_1746"><rect width="430" height="430" x="0" y="0"/></clipPath><clipPath id="__lottie_element_1748"><path d="M0,0 L430,0 L430,430 L0,430z"/></clipPath></defs><g clip-path="url(#__lottie_element_1746)"><g clip-path="url(#__lottie_element_1748)" transform="matrix(1,0,0,1,0,0)" opacity="1" style="display: block;"><g transform="matrix(0.9974152445793152,0.07185269147157669,-0.07185269147157669,0.9974152445793152,190.9980010986328,126.17605590820312)" opacity="1" style="display: none;"><g opacity="1" transform="matrix(1,0,0,1,0,0)"><path stroke-linecap="round" stroke-linejoin="round" fill-opacity="0" class="secondary" stroke="rgb(8,168,138)" stroke-opacity="1" stroke-width="12.04" d=" M41.08700180053711,41.08700180053711 C41.08700180053711,41.08700180053711 -41.08700180053711,41.08700180053711 -41.08700180053711,41.08700180053711 C-41.08700180053711,41.08700180053711 -41.08700180053711,-41.08700180053711 -41.08700180053711,-41.08700180053711 C-41.08700180053711,-41.08700180053711 41.08700180053711,-41.08700180053711 41.08700180053711,-41.08700180053711 C41.08700180053711,-41.08700180053711 41.08700180053711,41.08700180053711 41.08700180053711,41.08700180053711z"/></g></g><g transform="matrix(1,0,0,1,190.9980010986328,214.9669952392578)" opacity="1" style="display: block;"><g opacity="1" transform="matrix(1,0,0,1,0,0)"><path stroke-linecap="round" stroke-linejoin="round" fill-opacity="0" class="primary" stroke="rgb(18,19,49)" stroke-opacity="1" stroke-width="12.04" d=" M41.08700180053711,41.08700180053711 C41.08700180053711,41.08700180053711 -41.08700180053711,41.08700180053711 -41.08700180053711,41.08700180053711 C-41.08700180053711,41.08700180053711 -41.08700180053711,-41.08700180053711 -41.08700180053711,-41.08700180053711 C-41.08700180053711,-41.08700180053711 41.08700180053711,-41.08700180053711 41.08700180053711,-41.08700180053711 C41.08700180053711,-41.08700180053711 41.08700180053711,41.08700180053711 41.08700180053711,41.08700180053711z"/></g></g><g transform="matrix(1,0,0,1,190.9980010986328,334)" opacity="1" style="display: block;"><g opacity="1" transform="matrix(1,0,0,1,0,0)"><path stroke-linecap="round" stroke-linejoin="round" fill-opacity="0" class="primary" stroke="rgb(18,19,49)" stroke-opacity="1" stroke-width="12.04" d=" M41.08700180053711,41.08700180053711 C41.08700180053711,41.08700180053711 -41.08700180053711,41.08700180053711 -41.08700180053711,41.08700180053711 C-41.08700180053711,41.08700180053711 -41.08700180053711,-41.08700180053711 -41.08700180053711,-41.08700180053711 C-41.08700180053711,-41.08700180053711 41.08700180053711,-41.08700180053711 41.08700180053711,-41.08700180053711 C41.08700180053711,-41.08700180053711 41.08700180053711,41.08700180053711 41.08700180053711,41.08700180053711z"/></g></g><g transform="matrix(0.9964897036552429,-0.08371548354625702,0.08371548354625702,0.9964897036552429,321.99798583984375,253.094482421875)" opacity="1" style="display: none;"><g opacity="1" transform="matrix(1,0,0,1,0,0)"><path stroke-linecap="round" stroke-linejoin="round" fill-opacity="0" class="primary" stroke="rgb(18,19,49)" stroke-opacity="1" stroke-width="12.04" d=" M61.03300094604492,61.03300094604492 C61.03300094604492,61.03300094604492 -61.03300094604492,61.03300094604492 -61.03300094604492,61.03300094604492 C-61.03300094604492,61.03300094604492 -61.03300094604492,-61.03300094604492 -61.03300094604492,-61.03300094604492 C-61.03300094604492,-61.03300094604492 61.03300094604492,-61.03300094604492 61.03300094604492,-61.03300094604492 C61.03300094604492,-61.03300094604492 61.03300094604492,61.03300094604492 61.03300094604492,61.03300094604492z"/></g></g><g transform="matrix(1.0000001192092896,0,0,1.0000001192092896,190.9980010986328,96.03299713134766)" opacity="1" style="display: block;"><g opacity="1" transform="matrix(1,0,0,1,0,0)"><path stroke-linecap="round" stroke-linejoin="round" fill-opacity="0" class="secondary" stroke="rgb(8,168,138)" stroke-opacity="1" stroke-width="12.04" d=" M41.08700180053711,41.08700180053711 C41.08700180053711,41.08700180053711 -41.08700180053711,41.08700180053711 -41.08700180053711,41.08700180053711 C-41.08700180053711,41.08700180053711 -41.08700180053711,-41.08700180053711 -41.08700180053711,-41.08700180053711 C-41.08700180053711,-41.08700180053711 41.08700180053711,-41.08700180053711 41.08700180053711,-41.08700180053711 C41.08700180053711,-41.08700180053711 41.08700180053711,41.08700180053711 41.08700180053711,41.08700180053711z"/></g></g><g transform="matrix(1,0,0,1,277.8999938964844,216.1699981689453)" opacity="1" style="display: none;"><g opacity="1" transform="matrix(1,0,0,1,0,0)"><path stroke-linecap="round" stroke-linejoin="round" fill-opacity="0" class="primary" stroke="rgb(18,19,49)" stroke-opacity="1" stroke-width="12.04" d="M0 0"/></g></g><g transform="matrix(1,0,0,1,-35,-35.00000762939453)" opacity="1" style="display: none;"><g opacity="1" transform="matrix(1,0,0,1,311.4020080566406,121.29100036621094)"><path stroke-linecap="round" stroke-linejoin="round" fill-opacity="0" class="primary" stroke="rgb(18,19,49)" stroke-opacity="1" stroke-width="12.04" d=" M-25.152000427246094,10.74899959564209 C-25.152000427246094,10.74899959564209 -25.152000427246094,10.74899959564209 -25.152000427246094,10.74899959564209"/></g><g opacity="1" transform="matrix(1,0,0,1,311.4020080566406,143.2100067138672)"><path stroke-linecap="round" stroke-linejoin="round" fill-opacity="0" class="primary" stroke="rgb(18,19,49)" stroke-opacity="1" stroke-width="12.04" d=" M-25.152000427246094,-11.170000076293945 C-25.152000427246094,-11.170000076293945 -25.152000427246094,-11.170000076293945 -25.152000427246094,-11.170000076293945"/></g></g><g transform="matrix(1,0,0,1,277.8999938964844,216.1699981689453)" opacity="1" style="display: block;"><g opacity="1" transform="matrix(1,0,0,1,0,0)"><path stroke-linecap="round" stroke-linejoin="round" fill-opacity="0" class="primary" stroke="rgb(18,19,49)" stroke-opacity="1" stroke-width="12.04" d=" M-45.53099822998047,118.91899871826172 C-45.53099822998047,118.91899871826172 45.53099822998047,118.91899871826172 45.53099822998047,118.91899871826172 C45.53099822998047,118.91899871826172 45.53099822998047,-118.91899871826172 45.53099822998047,-118.91899871826172 C45.53099822998047,-118.91899871826172 -14.843999862670898,-118.91899871826172 -14.843999862670898,-118.91899871826172"/></g></g><g transform="matrix(1,0,0,1,-35,-35.00000762939453)" opacity="1" style="display: block;"><g opacity="1" transform="matrix(1,0,0,1,311.4020080566406,121.29100036621094)"><path stroke-linecap="round" stroke-linejoin="round" fill-opacity="0" class="primary" stroke="rgb(18,19,49)" stroke-opacity="1" stroke-width="12.04" d=" M-13.343000411987305,10.958999633789062 C-13.343000411987305,10.958999633789062 13.343000411987305,-10.958999633789062 13.343000411987305,-10.958999633789062"/></g><g opacity="1" transform="matrix(1,0,0,1,311.4020080566406,143.2100067138672)"><path stroke-linecap="round" stroke-linejoin="round" fill-opacity="0" class="primary" stroke="rgb(18,19,49)" stroke-opacity="1" stroke-width="12.04" d=" M-13.343000411987305,-10.958999633789062 C-13.343000411987305,-10.958999633789062 13.343000411987305,10.958999633789062 13.343000411987305,10.958999633789062"/></g></g></g></g></svg>