<svg xmlns="http://www.w3.org/2000/svg" xmlns:xlink="http://www.w3.org/1999/xlink" viewBox="0 0 430 430" width="430" height="430" preserveAspectRatio="xMidYMid meet" style="width: 100%; height: 100%; transform: translate3d(0px, 0px, 0px); content-visibility: visible;"><defs><clipPath id="__lottie_element_1257"><rect width="430" height="430" x="0" y="0"/></clipPath><clipPath id="__lottie_element_1259"><path d="M0,0 L430,0 L430,430 L0,430z"/></clipPath></defs><g clip-path="url(#__lottie_element_1257)"><g clip-path="url(#__lottie_element_1259)" transform="matrix(1,0,0,1,0,0)" opacity="1" style="display: block;"><g transform="matrix(1,0,0,1,-35,-34.99998474121094)" opacity="1" style="display: block;"><g opacity="1" transform="matrix(1,0,0,1,250.2550048828125,118.99299621582031)"><path stroke-linecap="round" stroke-linejoin="round" fill-opacity="0" class="primary" stroke="rgb(18,19,49)" stroke-opacity="1" stroke-width="12" d=" M0,29.113000869750977 C0,29.113000869750977 0,78.30799865722656 0,78.30799865722656 M-29.113000869750977,0 C-29.113000869750977,-16.077999114990234 -16.077999114990234,-29.113000869750977 0,-29.113000869750977 C16.077999114990234,-29.113000869750977 29.113000869750977,-16.077999114990234 29.113000869750977,0 C29.113000869750977,16.077999114990234 16.077999114990234,29.113000869750977 0,29.113000869750977 C-16.077999114990234,29.113000869750977 -29.113000869750977,16.077999114990234 -29.113000869750977,0z"/></g></g><g transform="matrix(0.2923716902732849,0.9563047289848328,-0.9563047289848328,0.2923716902732849,393.61480712890625,-88.19966125488281)" opacity="1" style="display: block;"><g opacity="1" transform="matrix(1,0,0,1,250.2550048828125,118.99299621582031)"><path stroke-linecap="round" stroke-linejoin="round" fill-opacity="0" class="primary" stroke="rgb(18,19,49)" stroke-opacity="1" stroke-width="12" d=" M0,29.113000869750977 C0,29.113000869750977 0,78.30799865722656 0,78.30799865722656 M-29.113000869750977,0 C-29.113000869750977,-16.077999114990234 -16.077999114990234,-29.113000869750977 0,-29.113000869750977 C16.077999114990234,-29.113000869750977 29.113000869750977,-16.077999114990234 29.113000869750977,0 C29.113000869750977,16.077999114990234 16.077999114990234,29.113000869750977 0,29.113000869750977 C-16.077999114990234,29.113000869750977 -29.113000869750977,16.077999114990234 -29.113000869750977,0z"/></g></g><g transform="matrix(0.2923717796802521,0.9563047289848328,-0.9563047289848328,0.2923717796802521,393.61474609375,-88.19966125488281)" opacity="1" style="display: none;"><g opacity="1" transform="matrix(1,0,0,1,250.2550048828125,118.99299621582031)"><path stroke-linecap="round" stroke-linejoin="round" fill-opacity="0" class="primary" stroke="rgb(18,19,49)" stroke-opacity="1" stroke-width="12" d=" M0,29.113000869750977 C0,29.113000869750977 0,78.30799865722656 0,78.30799865722656 M-29.113000869750977,0 C-29.113000869750977,-16.077999114990234 -16.077999114990234,-29.113000869750977 0,-29.113000869750977 C16.077999114990234,-29.113000869750977 29.113000869750977,-16.077999114990234 29.113000869750977,0 C29.113000869750977,16.077999114990234 16.077999114990234,29.113000869750977 0,29.113000869750977 C-16.077999114990234,29.113000869750977 -29.113000869750977,16.077999114990234 -29.113000869750977,0z"/></g></g><g transform="matrix(-0.8191520571708679,0.5735764503479004,-0.5735764503479004,-0.8191520571708679,571.114013671875,299.9329833984375)" opacity="1" style="display: block;"><g opacity="1" transform="matrix(1,0,0,1,250.2550048828125,118.99299621582031)"><path stroke-linecap="round" stroke-linejoin="round" fill-opacity="0" class="primary" stroke="rgb(18,19,49)" stroke-opacity="1" stroke-width="12" d=" M0,29.113000869750977 C0,29.113000869750977 0,78.30799865722656 0,78.30799865722656 M-29.113000869750977,0 C-29.113000869750977,-16.077999114990234 -16.077999114990234,-29.113000869750977 0,-29.113000869750977 C16.077999114990234,-29.113000869750977 29.113000869750977,-16.077999114990234 29.113000869750977,0 C29.113000869750977,16.077999114990234 16.077999114990234,29.113000869750977 0,29.113000869750977 C-16.077999114990234,29.113000869750977 -29.113000869750977,16.077999114990234 -29.113000869750977,0z"/></g></g><g transform="matrix(-0.8191520571708679,-0.5735764503479004,0.5735764503479004,-0.8191520571708679,269.38983154296875,587.0137329101562)" opacity="1" style="display: block;"><g opacity="1" transform="matrix(1,0,0,1,250.2550048828125,118.99299621582031)"><path stroke-linecap="round" stroke-linejoin="round" fill-opacity="0" class="primary" stroke="rgb(18,19,49)" stroke-opacity="1" stroke-width="12" d=" M0,29.113000869750977 C0,29.113000869750977 0,78.30799865722656 0,78.30799865722656 M-29.113000869750977,0 C-29.113000869750977,-16.077999114990234 -16.077999114990234,-29.113000869750977 0,-29.113000869750977 C16.077999114990234,-29.113000869750977 29.113000869750977,-16.077999114990234 29.113000869750977,0 C29.113000869750977,16.077999114990234 16.077999114990234,29.113000869750977 0,29.113000869750977 C-16.077999114990234,29.113000869750977 -29.113000869750977,16.077999114990234 -29.113000869750977,0z"/></g></g><g transform="matrix(0.2923716902732849,-0.9563047289848328,0.9563047289848328,0.2923716902732849,-109.43975830078125,390.4404602050781)" opacity="1" style="display: block;"><g opacity="1" transform="matrix(1,0,0,1,250.2550048828125,118.99299621582031)"><path stroke-linecap="round" stroke-linejoin="round" fill-opacity="0" class="primary" stroke="rgb(18,19,49)" stroke-opacity="1" stroke-width="12" d=" M0,29.113000869750977 C0,29.113000869750977 0,78.30799865722656 0,78.30799865722656 M-29.113000869750977,0 C-29.113000869750977,-16.077999114990234 -16.077999114990234,-29.113000869750977 0,-29.113000869750977 C16.077999114990234,-29.113000869750977 29.113000869750977,-16.077999114990234 29.113000869750977,0 C29.113000869750977,16.077999114990234 16.077999114990234,29.113000869750977 0,29.113000869750977 C-16.077999114990234,29.113000869750977 -29.113000869750977,16.077999114990234 -29.113000869750977,0z"/></g></g><g transform="matrix(1,0,0,1,215.2550048828125,228.02000427246094)" opacity="1" style="display: block;"><g opacity="1" transform="matrix(1,0,0,1,0,0)"><path stroke-linecap="round" stroke-linejoin="round" fill-opacity="0" class="secondary" stroke="rgb(8,168,138)" stroke-opacity="1" stroke-width="12" d=" M65.71900177001953,0 C65.71900177001953,36.29499816894531 36.29499816894531,65.71900177001953 0,65.71900177001953 C-36.29499816894531,65.71900177001953 -65.71900177001953,36.29499816894531 -65.71900177001953,0 C-65.71900177001953,-36.29499816894531 -36.29499816894531,-65.71900177001953 0,-65.71900177001953 C36.29499816894531,-65.71900177001953 65.71900177001953,-36.29499816894531 65.71900177001953,0z"/></g></g></g></g></svg>